<svg width="93" height="64" viewBox="0 0 93 64" fill="none" xmlns="http://www.w3.org/2000/svg">
<g clip-path="url(#clip0)">
<path d="M26.6475 0H54.1444C54.1444 0 61.7416 0.535776 64.2035 5.26004H40.1827C40.1827 5.26004 34.2581 5.72843 34.2581 11.2176V14.2233C34.2581 14.2233 33.9222 20.2348 40.3036 20.2348H48.6497C48.6497 20.2348 50.947 20.7201 50.947 22.6509C50.947 24.5817 50.3055 25.4949 49.13 25.4949H26.6475V0Z" fill="#C04427"/>
<path d="M65.3085 10.2H42.4464C42.4464 10.2 39.877 10.0551 39.877 12.3802V13.2765C39.877 13.2765 39.8435 15.423 42.3389 15.423H50.6515C50.6515 15.423 56.2839 16.2452 56.2839 20.1405V25.4781C56.2839 25.4781 56.2503 30.6842 51.0948 30.6842H26.6475V35.8196H55.1083C55.1083 35.8196 63.5956 35.4624 65.5939 28.9488C66.4477 26.6029 66.4477 24.0297 65.5939 21.6838C65.5939 21.6838 63.9885 17.9267 60.6736 17.4616C60.6736 17.4616 65.2379 16.2452 65.3085 10.2Z" fill="#FFF3EB"/>
<path d="M0 45.0558H4.79946C5.95694 45.0099 7.11524 45.1233 8.24204 45.3928C9.02425 45.6325 9.69505 46.1453 10.1329 46.8384C10.6121 47.5595 10.8517 48.722 10.8517 50.326C10.8517 51.411 10.6826 52.167 10.3445 52.5938C10.0064 53.0206 9.33471 53.3486 8.32936 53.5777C9.4489 53.8316 10.2023 54.2505 10.5897 54.8346C10.9771 55.4187 11.1752 56.3173 11.1842 57.5303V59.2489C11.1842 60.5024 11.042 61.4313 10.7576 62.0356C10.6286 62.3246 10.442 62.584 10.2092 62.7979C9.9764 63.0117 9.70241 63.1754 9.40412 63.279C8.77942 63.5036 7.49978 63.6159 5.56522 63.6159H0V45.0558ZM4.80953 48.2301V52.3579C5.01441 52.3579 5.17562 52.3579 5.28982 52.3579C5.76002 52.3579 6.0623 52.2433 6.19328 52.0209C6.32427 51.7985 6.38472 51.1212 6.38472 50.0227C6.4092 49.6098 6.35564 49.1959 6.22687 48.8029C6.19138 48.7046 6.13608 48.6146 6.06443 48.5387C5.99278 48.4628 5.90631 48.4024 5.8104 48.3615C5.4847 48.2702 5.14769 48.2259 4.80953 48.2301ZM4.80953 55.2457V60.435C5.48126 60.4148 5.91788 60.3069 6.10596 60.1149C6.29404 59.9228 6.38472 59.4409 6.38472 58.7063V56.9743C6.38472 56.1791 6.30076 55.6972 6.13619 55.5321C5.97161 55.367 5.52492 55.2625 4.80953 55.2625V55.2457Z" fill="#C14427"/>
<path d="M12.9204 45.0558H16.3227C18.5931 45.0558 20.1302 45.1434 20.9341 45.3186C21.7387 45.4945 22.4435 45.978 22.8988 46.6665C23.4049 47.3876 23.6579 48.5389 23.6579 50.1204C23.6579 51.5671 23.4788 52.5376 23.1205 53.0318C22.7623 53.526 22.0581 53.8203 21.0079 53.9146C21.9584 54.1539 22.5999 54.4706 22.9257 54.8682C23.21 55.1818 23.4191 55.5564 23.537 55.9634C23.6505 56.873 23.6909 57.7902 23.6579 58.7063V63.6024H19.1909V57.4359C19.1909 56.443 19.1126 55.8275 18.9558 55.5894C18.8013 55.3535 18.3916 55.2355 17.7299 55.2355V63.6024H12.9204V45.0558ZM17.7299 48.23V52.3578C18.1219 52.3903 18.5151 52.3121 18.8652 52.1321C19.0835 51.9838 19.201 51.4986 19.201 50.6831V49.6722C19.201 49.0859 19.0969 48.6984 18.8887 48.5164C18.5467 48.2903 18.1375 48.1892 17.7299 48.23Z" fill="#C14427"/>
<path d="M30.3282 45.0558V63.6125H25.5254V45.0558H30.3282Z" fill="#C14427"/>
<path d="M43.4907 53.1362H38.6811V49.9115C38.7186 49.3218 38.6665 48.7298 38.5266 48.1559C38.4609 48.039 38.3618 47.9444 38.2421 47.8844C38.1224 47.8244 37.9876 47.8016 37.8549 47.8189C37.7005 47.7973 37.5432 47.8271 37.4073 47.9038C37.2714 47.9805 37.1644 48.0998 37.1026 48.2435C36.9612 48.8435 36.9069 49.4609 36.9414 50.0766V58.6962C36.9073 59.2895 36.9616 59.8846 37.1026 60.4619C37.1595 60.6011 37.2612 60.7171 37.3914 60.7916C37.5216 60.8661 37.673 60.8948 37.8213 60.873C37.9674 60.8906 38.1153 60.8595 38.2421 60.7847C38.3689 60.7098 38.4677 60.5952 38.5233 60.4585C38.6736 59.8233 38.7302 59.1693 38.6912 58.5176V56.1723H43.5008V56.8968C43.5008 58.8175 43.3653 60.1788 43.0944 60.9808C42.7537 61.8694 42.121 62.6147 41.3009 63.0936C40.2737 63.7268 39.0833 64.0421 37.8784 64C36.6712 64.0461 35.4722 63.7817 34.3956 63.2317C33.5376 62.7867 32.886 62.0241 32.5785 61.1055C32.283 60.2069 32.1341 58.8456 32.1319 57.0215V51.5997C32.1156 50.5947 32.1616 49.5898 32.2696 48.5906C32.3748 47.8882 32.6556 47.2239 33.0857 46.6597C33.5744 46.0128 34.2258 45.5081 34.9732 45.1973C35.8488 44.8286 36.7914 44.6473 37.7407 44.6649C38.96 44.6198 40.1689 44.905 41.2404 45.4905C42.0699 45.9352 42.7133 46.6631 43.0541 47.5426C43.3474 48.3648 43.4929 49.6419 43.4907 51.3739V53.1362Z" fill="#C14427"/>
<path d="M55.4171 50.673H50.9501V49.2948C50.9881 48.8781 50.9294 48.4583 50.7788 48.0682C50.715 47.978 50.6287 47.9062 50.5284 47.86C50.4282 47.8139 50.3177 47.795 50.2079 47.8054C50.0766 47.7995 49.9463 47.8297 49.8309 47.8926C49.7155 47.9556 49.6194 48.0489 49.5529 48.1626C49.3799 48.4942 49.302 48.8675 49.3279 49.2409C49.3003 49.7204 49.3866 50.1997 49.5798 50.6393C49.7388 50.9538 50.1866 51.3323 50.9232 51.7748C53.0638 53.0486 54.4072 54.0943 54.9536 54.912C55.4999 55.7297 55.7776 57.0472 55.7865 58.8646C55.7865 60.19 55.6331 61.165 55.3264 61.7895C54.9237 62.5016 54.2928 63.0562 53.5362 63.3631C52.5695 63.8057 51.5155 64.0234 50.453 64C49.3109 64.0342 48.1784 63.7817 47.1582 63.2654C46.3511 62.8879 45.7129 62.2224 45.3681 61.3986C45.0449 60.3569 44.9017 59.2674 44.9449 58.1772V56.9641H49.4119V59.2218C49.4119 59.916 49.4757 60.3641 49.6033 60.5697C49.6786 60.6748 49.7807 60.7578 49.8988 60.8099C50.017 60.8621 50.1469 60.8815 50.275 60.8662C50.4173 60.8749 50.5592 60.8444 50.6853 60.7778C50.8114 60.7113 50.917 60.6113 50.9904 60.4888C51.1675 60.1426 51.2487 59.7551 51.2255 59.3667C51.2255 58.2727 51.0766 57.5583 50.7788 57.2236C50.0866 56.5882 49.3327 56.0237 48.5286 55.5388C47.6989 55.0159 46.9056 54.4373 46.154 53.8068C45.7255 53.3884 45.3951 52.8797 45.1867 52.3174C44.9075 51.539 44.7776 50.7147 44.8039 49.8878C44.8039 48.4658 44.9852 47.4269 45.348 46.7709C45.7482 46.0778 46.3641 45.5357 47.1011 45.2276C48.0252 44.8338 49.0229 44.6442 50.0265 44.6716C51.1211 44.6413 52.2094 44.8482 53.2172 45.2781C54.0971 45.6859 54.6815 46.1947 54.967 46.8113C55.2525 47.428 55.3936 48.4692 55.3936 49.9451L55.4171 50.673Z" fill="#FFF3EB"/>
<path d="M65.6272 45.0558L68.3745 63.6125H63.4777L63.2191 60.2766H61.4995L61.2106 63.6125H56.2197L58.6749 45.0558H65.6272ZM63.078 56.9878C62.834 54.8851 62.5899 52.2871 62.3458 49.1937C61.8555 52.7454 61.5476 55.3434 61.4222 56.9878H63.078Z" fill="#FFF3EB"/>
<path d="M79.9351 45.0558V63.6125H75.7166L73.2145 55.1884V63.6125H69.1875V45.0558H73.2178L75.9047 53.4092V45.0558H79.9351Z" fill="#FFF3EB"/>
<path d="M81.8628 45.0558H85.4599C87.784 45.0558 89.3514 45.1625 90.1619 45.3759C90.8761 45.5306 91.5271 45.8982 92.0293 46.4306C92.4424 46.89 92.7192 47.456 92.8287 48.0649C92.9673 49.2377 93.0212 50.4191 92.9899 51.5997V58.0997C92.9899 59.7644 92.9115 60.8775 92.7548 61.4391C92.6297 61.9543 92.3437 62.416 91.9386 62.7566C91.5186 63.093 91.0247 63.3241 90.4978 63.4306C89.6467 63.5818 88.7824 63.6462 87.9184 63.6226H81.8628V45.0558ZM86.6723 48.23V60.4349C87.3642 60.4349 87.7907 60.2968 87.952 60.0171C88.1132 59.7374 88.1904 58.9792 88.1904 57.7426V50.545C88.209 50.0045 88.1821 49.4634 88.1098 48.9275C88.0897 48.8192 88.0466 48.7165 87.9834 48.6264C87.9203 48.5363 87.8385 48.4609 87.7437 48.4052C87.4051 48.2638 87.0382 48.2038 86.6723 48.23Z" fill="#FFF3EB"/>
</g>
<defs>
<clipPath id="clip0">
<rect width="93" height="64" fill="white"/>
</clipPath>
</defs>
</svg>
